External Loads File
version=1
nRows=38
nColumns=13
Range=5.000000e-03-10 seconds
endheader
time 	forceRightX 	forceRightY 	forceRightZ 	pointRightX 	pointRightY 	pointRightZ 	forceLeftX 	forceLeftY 	forceLeftZ 	pointLeftX 	pointLeftY 	pointLeftZ 		
5.005000 174.762406 448.591918 -0.000000 0.253781 0.165774 -0.119802 -77.981910 -131.531478 -0.000000 0.147613 0.453941 -0.360029
5.010000 187.215626 459.484713 -0.000000 0.245081 0.160217 -0.119990 -98.393481 -146.765506 -0.000000 0.156447 0.459352 -0.361454
5.015000 200.471892 471.491804 -0.000000 0.236004 0.155260 -0.119691 -118.028868 -158.320660 -0.000000 0.165949 0.464336 -0.361672
5.020000 213.377018 483.706569 -0.000000 0.226668 0.150957 -0.119301 -135.103051 -165.280117 -0.000000 0.175285 0.468781 -0.361657
5.025000 226.027400 494.503294 -0.000000 0.217277 0.147236 -0.119123 -148.426829 -166.889960 -0.000000 0.184720 0.472662 -0.361655
5.030000 237.294669 502.722269 -0.000000 0.208276 0.144260 -0.119367 -156.821456 -163.276807 -0.000000 0.194072 0.476065 -0.361749
5.035000 247.605014 506.493838 -0.000000 0.199012 0.142151 -0.119305 -160.168570 -154.618512 -0.000000 0.203166 0.478952 -0.362274
5.040000 256.753389 504.351901 -0.000000 0.189882 0.140569 -0.119299 -158.642177 -141.666088 -0.000000 0.212523 0.480841 -0.362486
5.045000 263.279635 495.806817 -0.000000 0.180847 0.139513 -0.119368 -152.529478 -125.754543 -0.000000 0.221495 0.482607 -0.362796
5.050000 266.680229 480.387399 -0.000000 0.172026 0.139321 -0.119464 -142.826462 -107.874182 -0.000000 0.230087 0.483691 -0.363024
5.055000 266.637133 458.036382 -0.000000 0.163467 0.139623 -0.119511 -130.820318 -88.727692 -0.000000 0.238461 0.484316 -0.363129
5.060000 262.468366 429.469710 -0.000000 0.155335 0.140621 -0.119584 -117.739634 -68.761870 -0.000000 0.246360 0.484473 -0.363487
5.065000 254.104330 395.636710 -0.000000 0.147514 0.142110 -0.119789 -104.754065 -47.919008 -0.000000 0.253563 0.484033 -0.363744
5.070000 241.868380 357.755411 -0.000000 0.140296 0.144202 -0.119789 -92.840128 -25.885159 -0.000000 0.260179 0.482680 -0.364144
5.075000 226.926361 316.832942 -0.000000 0.133330 0.146831 -0.119870 -82.799240 -2.146239 -0.000000 0.266525 0.480425 -0.364828
5.080000 209.709437 274.546374 -0.000000 0.126811 0.149831 -0.119879 -75.152684 23.516092 -0.000000 0.272456 0.476891 -0.365484
5.085000 190.850598 232.507660 -0.000000 0.120591 0.153491 -0.120197 -70.339568 51.260990 -0.000000 0.278044 0.473328 -0.366016
5.090000 171.109278 192.155335 -0.000000 0.114796 0.157508 -0.120268 -68.792890 81.218570 -0.000000 0.283250 0.469344 -0.366367
5.095000 151.355112 154.574482 -0.000000 0.109606 0.161916 -0.120081 -70.939315 113.501435 -0.000000 0.288057 0.464469 -0.366981
5.100000 132.710578 120.122386 -0.000000 0.104069 0.166891 -0.120288 -76.720368 148.267520 -0.000000 0.292753 0.458748 -0.367277
5.105000 115.315130 89.594390 -0.000000 0.098713 0.172396 -0.120742 -86.431759 185.007800 -0.000000 0.297464 0.452798 -0.367181
5.110000 99.429221 63.267341 -0.000000 0.094321 0.178393 -0.120616 -100.312800 222.762483 -0.000000 0.301954 0.446254 -0.366989
5.115000 85.484448 40.667229 -0.000000 0.090165 0.184746 -0.120597 -117.370304 260.585477 -0.000000 0.306373 0.438822 -0.366689
5.120000 73.525061 21.252150 -0.000000 0.086173 0.191586 -0.120697 -135.818697 297.558546 -0.000000 0.310794 0.429641 -0.367010
5.125000 63.241658 4.949453 -0.000000 0.082582 0.198715 -0.120818 -155.797950 331.868728 -0.000000 0.315042 0.420679 -0.367155
5.130000 54.443380 -8.924942 -0.000000 0.079406 0.206087 -0.120758 -175.663702 362.669577 -0.000000 0.319049 0.411104 -0.367130
5.135000 46.761704 -20.838052 -0.000000 0.076746 0.213970 -0.120626 -194.723944 388.996442 -0.000000 0.322682 0.401504 -0.367220
5.140000 39.719588 -31.246812 -0.000000 0.074545 0.222178 -0.120366 -211.889445 410.586086 -0.000000 0.326144 0.391558 -0.367364
5.145000 32.902849 -40.313543 -0.000000 0.072729 0.230471 -0.120182 -227.597040 426.995641 -0.000000 0.329021 0.381596 -0.367562
5.150000 25.789142 -48.223632 -0.000000 0.071524 0.239017 -0.120146 -240.360709 439.343684 -0.000000 0.331708 0.370887 -0.367648
5.155000 18.207277 -54.835466 -0.000000 0.070726 0.247719 -0.120061 -251.185642 447.860899 -0.000000 0.333881 0.360248 -0.367521
5.160000 9.988575 -60.025420 -0.000000 0.069583 0.256586 -0.120842 -259.444351 453.943834 -0.000000 0.335563 0.349629 -0.367614
5.165000 1.268701 -63.579509 -0.000000 0.069914 0.265744 -0.120674 -265.381125 458.658423 -0.000000 0.336859 0.338777 -0.367479
5.170000 -7.654662 -65.323397 -0.000000 0.070179 0.275123 -0.120858 -268.694139 463.396670 -0.000000 0.337519 0.327979 -0.367028
5.175000 -16.229366 -65.172016 -0.000000 0.071265 0.284698 -0.120855 -269.439654 469.228765 -0.000000 0.337376 0.317110 -0.367325
5.180000 -23.849875 -63.191224 -0.000000 0.072805 0.294554 -0.120868 -267.154752 477.286119 -0.000000 0.336632 0.306302 -0.367407
5.185000 -29.856831 -59.666104 -0.000000 0.074685 0.304603 -0.121025 -261.756971 488.135442 -0.000000 0.335226 0.295655 -0.367312
5.190000 -33.816774 -55.049109 -0.000000 0.076974 0.314768 -0.121241 -252.605423 502.254558 -0.000000 0.333194 0.284989 -0.367871
